<mxfile host="app.diagrams.net" modified="2023-10-03T14:39:21.899Z" agent="Mozilla/5.0 (Windows NT 10.0; Win64; x64) AppleWebKit/537.36 (KHTML, like Gecko) Chrome/117.0.0.0 Safari/537.36" etag="ht_Cjz2nsY65UO45yela" version="22.0.2" type="device">
  <diagram name="Página-1" id="rjFIUjojbKdADzGp1hrn">
    <mxGraphModel dx="1036" dy="2174" grid="1" gridSize="10" guides="1" tooltips="1" connect="1" arrows="1" fold="1" page="1" pageScale="1" pageWidth="1169" pageHeight="1654" math="0" shadow="0">
      <root>
        <mxCell id="0" />
        <mxCell id="1" parent="0" />
        <mxCell id="V1M1o0XxE9o92TGWPAIC-1" value="" style="rounded=0;whiteSpace=wrap;html=1;fillColor=#d5e8d4;strokeColor=#82b366;" parent="1" vertex="1">
          <mxGeometry x="190" y="-1630" width="780" height="1590" as="geometry" />
        </mxCell>
        <mxCell id="V1M1o0XxE9o92TGWPAIC-2" value="&lt;font style=&quot;font-size: 22px;&quot;&gt;Sistema de Gestão de Aventuras&lt;/font&gt;" style="text;html=1;strokeColor=none;fillColor=none;align=center;verticalAlign=middle;whiteSpace=wrap;rounded=0;" parent="1" vertex="1">
          <mxGeometry x="350" y="-1610" width="460" height="30" as="geometry" />
        </mxCell>
        <mxCell id="V1M1o0XxE9o92TGWPAIC-4" value="Socio Empresa" style="shape=umlActor;verticalLabelPosition=bottom;verticalAlign=top;html=1;fillColor=#ffcd28;gradientColor=#ffa500;strokeColor=#d79b00;" parent="1" vertex="1">
          <mxGeometry x="35" y="-1210" width="30" height="60" as="geometry" />
        </mxCell>
        <mxCell id="V1M1o0XxE9o92TGWPAIC-5" value="Socio Individual" style="shape=umlActor;verticalLabelPosition=bottom;verticalAlign=top;html=1;fillColor=#f8cecc;gradientColor=#ea6b66;strokeColor=#b85450;" parent="1" vertex="1">
          <mxGeometry x="125" y="-1210" width="30" height="60" as="geometry" />
        </mxCell>
        <mxCell id="V1M1o0XxE9o92TGWPAIC-12" value="" style="endArrow=block;endFill=1;html=1;edgeStyle=orthogonalEdgeStyle;align=left;verticalAlign=top;rounded=0;" parent="1" source="V1M1o0XxE9o92TGWPAIC-4" target="V1M1o0XxE9o92TGWPAIC-3" edge="1">
          <mxGeometry x="-1" relative="1" as="geometry">
            <mxPoint x="50" y="-1100" as="sourcePoint" />
            <mxPoint x="210" y="-1100" as="targetPoint" />
            <Array as="points">
              <mxPoint x="50" y="-1230" />
              <mxPoint x="115" y="-1230" />
            </Array>
          </mxGeometry>
        </mxCell>
        <mxCell id="V1M1o0XxE9o92TGWPAIC-16" value="" style="endArrow=block;endFill=1;html=1;edgeStyle=orthogonalEdgeStyle;align=left;verticalAlign=top;rounded=0;" parent="1" source="V1M1o0XxE9o92TGWPAIC-5" target="V1M1o0XxE9o92TGWPAIC-3" edge="1">
          <mxGeometry x="-1" relative="1" as="geometry">
            <mxPoint x="60" y="-1080" as="sourcePoint" />
            <mxPoint x="220" y="-1080" as="targetPoint" />
            <Array as="points">
              <mxPoint x="140" y="-1230" />
              <mxPoint x="115" y="-1230" />
            </Array>
          </mxGeometry>
        </mxCell>
        <mxCell id="V1M1o0XxE9o92TGWPAIC-3" value="Sócio" style="shape=umlActor;verticalLabelPosition=bottom;verticalAlign=top;html=1;fillColor=#dae8fc;gradientColor=#7ea6e0;strokeColor=#6c8ebf;" parent="1" vertex="1">
          <mxGeometry x="100" y="-1350" width="30" height="60" as="geometry" />
        </mxCell>
        <mxCell id="V1M1o0XxE9o92TGWPAIC-18" value="Servidor / Site" style="shape=umlActor;verticalLabelPosition=bottom;verticalAlign=top;html=1;fillColor=#fff2cc;gradientColor=#ffd966;strokeColor=#d6b656;" parent="1" vertex="1">
          <mxGeometry x="1010" y="-990" width="30" height="60" as="geometry" />
        </mxCell>
        <mxCell id="V1M1o0XxE9o92TGWPAIC-19" value="Diretor Clube" style="shape=umlActor;verticalLabelPosition=bottom;verticalAlign=top;html=1;fillColor=#f5f5f5;gradientColor=#b3b3b3;strokeColor=#666666;" parent="1" vertex="1">
          <mxGeometry x="100" y="-865" width="30" height="60" as="geometry" />
        </mxCell>
        <mxCell id="V1M1o0XxE9o92TGWPAIC-20" value="Administrador Local" style="shape=umlActor;verticalLabelPosition=bottom;verticalAlign=top;html=1;fillColor=#e6d0de;gradientColor=#d5739d;strokeColor=#996185;" parent="1" vertex="1">
          <mxGeometry x="100" y="-410" width="30" height="60" as="geometry" />
        </mxCell>
        <mxCell id="V1M1o0XxE9o92TGWPAIC-21" value="Banco" style="shape=umlActor;verticalLabelPosition=bottom;verticalAlign=top;html=1;fillColor=#cce5ff;strokeColor=#36393d;" parent="1" vertex="1">
          <mxGeometry x="1010" y="-1520" width="30" height="60" as="geometry" />
        </mxCell>
        <mxCell id="V1M1o0XxE9o92TGWPAIC-105" style="rounded=0;orthogonalLoop=1;jettySize=auto;html=1;" parent="1" source="V1M1o0XxE9o92TGWPAIC-22" target="V1M1o0XxE9o92TGWPAIC-104" edge="1">
          <mxGeometry relative="1" as="geometry" />
        </mxCell>
        <mxCell id="V1M1o0XxE9o92TGWPAIC-106" value="&amp;lt;&amp;lt;extend&amp;gt;&amp;gt;" style="edgeLabel;html=1;align=center;verticalAlign=middle;resizable=0;points=[];" parent="V1M1o0XxE9o92TGWPAIC-105" vertex="1" connectable="0">
          <mxGeometry x="-0.0509" relative="1" as="geometry">
            <mxPoint as="offset" />
          </mxGeometry>
        </mxCell>
        <mxCell id="V1M1o0XxE9o92TGWPAIC-22" value="Pagamento de Quotas&lt;br&gt;&lt;hr&gt;Consultar pagamentos" style="ellipse;whiteSpace=wrap;html=1;" parent="1" vertex="1">
          <mxGeometry x="245" y="-1480" width="190" height="95" as="geometry" />
        </mxCell>
        <mxCell id="V1M1o0XxE9o92TGWPAIC-23" value="" style="endArrow=none;html=1;rounded=0;entryX=1;entryY=0.3333333333333333;entryDx=0;entryDy=0;entryPerimeter=0;" parent="1" source="V1M1o0XxE9o92TGWPAIC-22" target="V1M1o0XxE9o92TGWPAIC-3" edge="1">
          <mxGeometry relative="1" as="geometry">
            <mxPoint x="540" y="-1010" as="sourcePoint" />
            <mxPoint x="700" y="-1010" as="targetPoint" />
          </mxGeometry>
        </mxCell>
        <mxCell id="V1M1o0XxE9o92TGWPAIC-26" value="" style="endArrow=none;html=1;rounded=0;exitX=0;exitY=0.3333333333333333;exitDx=0;exitDy=0;exitPerimeter=0;" parent="1" source="V1M1o0XxE9o92TGWPAIC-21" target="V1M1o0XxE9o92TGWPAIC-22" edge="1">
          <mxGeometry relative="1" as="geometry">
            <mxPoint x="800" y="-1130" as="sourcePoint" />
            <mxPoint x="941" y="-1095" as="targetPoint" />
            <Array as="points">
              <mxPoint x="740" y="-1490" />
            </Array>
          </mxGeometry>
        </mxCell>
        <mxCell id="V1M1o0XxE9o92TGWPAIC-31" value="Pagamento semestral" style="shape=note;whiteSpace=wrap;html=1;backgroundOutline=1;darkOpacity=0.05;fontSize=12;" parent="1" vertex="1">
          <mxGeometry x="365" y="-1575" width="110" height="55" as="geometry" />
        </mxCell>
        <mxCell id="V1M1o0XxE9o92TGWPAIC-33" value="" style="endArrow=none;dashed=1;html=1;dashPattern=1 3;strokeWidth=2;rounded=0;" parent="1" source="V1M1o0XxE9o92TGWPAIC-31" target="V1M1o0XxE9o92TGWPAIC-22" edge="1">
          <mxGeometry width="50" height="50" relative="1" as="geometry">
            <mxPoint x="10" y="-870" as="sourcePoint" />
            <mxPoint x="7" y="-930" as="targetPoint" />
            <Array as="points" />
          </mxGeometry>
        </mxCell>
        <mxCell id="V1M1o0XxE9o92TGWPAIC-34" value="Envio do Recibo" style="ellipse;whiteSpace=wrap;html=1;" parent="1" vertex="1">
          <mxGeometry x="210" y="-1600" width="110" height="70" as="geometry" />
        </mxCell>
        <mxCell id="V1M1o0XxE9o92TGWPAIC-35" value="" style="endArrow=block;endFill=1;html=1;align=left;verticalAlign=top;rounded=0;" parent="1" source="V1M1o0XxE9o92TGWPAIC-22" target="V1M1o0XxE9o92TGWPAIC-34" edge="1">
          <mxGeometry x="-1" relative="1" as="geometry">
            <mxPoint x="410" y="-1220" as="sourcePoint" />
            <mxPoint x="570" y="-1220" as="targetPoint" />
            <mxPoint as="offset" />
          </mxGeometry>
        </mxCell>
        <mxCell id="V1M1o0XxE9o92TGWPAIC-37" value="&amp;lt;&amp;lt;include&amp;gt;&amp;gt;" style="edgeLabel;html=1;align=center;verticalAlign=middle;resizable=0;points=[];" parent="V1M1o0XxE9o92TGWPAIC-35" vertex="1" connectable="0">
          <mxGeometry x="-0.1596" relative="1" as="geometry">
            <mxPoint as="offset" />
          </mxGeometry>
        </mxCell>
        <mxCell id="V1M1o0XxE9o92TGWPAIC-75" style="rounded=0;orthogonalLoop=1;jettySize=auto;html=1;" parent="1" source="V1M1o0XxE9o92TGWPAIC-38" target="V1M1o0XxE9o92TGWPAIC-72" edge="1">
          <mxGeometry relative="1" as="geometry" />
        </mxCell>
        <mxCell id="V1M1o0XxE9o92TGWPAIC-76" value="&amp;lt;&amp;lt;include&amp;gt;&amp;gt;" style="edgeLabel;html=1;align=center;verticalAlign=middle;resizable=0;points=[];" parent="V1M1o0XxE9o92TGWPAIC-75" vertex="1" connectable="0">
          <mxGeometry x="-0.0815" y="1" relative="1" as="geometry">
            <mxPoint as="offset" />
          </mxGeometry>
        </mxCell>
        <mxCell id="V1M1o0XxE9o92TGWPAIC-38" value="Organizar aventuras" style="ellipse;whiteSpace=wrap;html=1;" parent="1" vertex="1">
          <mxGeometry x="270" y="-650" width="140" height="70" as="geometry" />
        </mxCell>
        <mxCell id="V1M1o0XxE9o92TGWPAIC-39" value="" style="endArrow=none;html=1;rounded=0;entryX=1;entryY=0.3333333333333333;entryDx=0;entryDy=0;entryPerimeter=0;" parent="1" source="V1M1o0XxE9o92TGWPAIC-38" target="V1M1o0XxE9o92TGWPAIC-19" edge="1">
          <mxGeometry relative="1" as="geometry">
            <mxPoint x="110" y="-950" as="sourcePoint" />
            <mxPoint y="-812" as="targetPoint" />
          </mxGeometry>
        </mxCell>
        <mxCell id="V1M1o0XxE9o92TGWPAIC-60" style="rounded=0;orthogonalLoop=1;jettySize=auto;html=1;" parent="1" source="V1M1o0XxE9o92TGWPAIC-46" target="V1M1o0XxE9o92TGWPAIC-59" edge="1">
          <mxGeometry relative="1" as="geometry" />
        </mxCell>
        <mxCell id="V1M1o0XxE9o92TGWPAIC-61" value="&amp;lt;&amp;lt;include&amp;gt;&amp;gt;" style="edgeLabel;html=1;align=center;verticalAlign=middle;resizable=0;points=[];" parent="V1M1o0XxE9o92TGWPAIC-60" vertex="1" connectable="0">
          <mxGeometry x="-0.0838" relative="1" as="geometry">
            <mxPoint as="offset" />
          </mxGeometry>
        </mxCell>
        <mxCell id="V1M1o0XxE9o92TGWPAIC-46" value="Preencher Ficha de Inscrição" style="ellipse;whiteSpace=wrap;html=1;" parent="1" vertex="1">
          <mxGeometry x="435" y="-1260" width="140" height="70" as="geometry" />
        </mxCell>
        <mxCell id="V1M1o0XxE9o92TGWPAIC-47" value="" style="endArrow=none;html=1;rounded=0;exitX=0;exitY=0.3333333333333333;exitDx=0;exitDy=0;exitPerimeter=0;" parent="1" source="V1M1o0XxE9o92TGWPAIC-18" target="V1M1o0XxE9o92TGWPAIC-38" edge="1">
          <mxGeometry relative="1" as="geometry">
            <mxPoint x="1020" y="-870" as="sourcePoint" />
            <mxPoint x="880" y="-870" as="targetPoint" />
          </mxGeometry>
        </mxCell>
        <mxCell id="V1M1o0XxE9o92TGWPAIC-48" value="" style="endArrow=none;html=1;rounded=0;exitX=0;exitY=0.3333333333333333;exitDx=0;exitDy=0;exitPerimeter=0;" parent="1" source="V1M1o0XxE9o92TGWPAIC-18" target="V1M1o0XxE9o92TGWPAIC-46" edge="1">
          <mxGeometry relative="1" as="geometry">
            <mxPoint x="1080" y="-870" as="sourcePoint" />
            <mxPoint x="940" y="-870" as="targetPoint" />
          </mxGeometry>
        </mxCell>
        <mxCell id="V1M1o0XxE9o92TGWPAIC-49" value="" style="endArrow=none;html=1;rounded=0;entryX=1;entryY=0.3333333333333333;entryDx=0;entryDy=0;entryPerimeter=0;" parent="1" source="V1M1o0XxE9o92TGWPAIC-46" target="V1M1o0XxE9o92TGWPAIC-3" edge="1">
          <mxGeometry relative="1" as="geometry">
            <mxPoint x="100" y="-1050" as="sourcePoint" />
            <mxPoint x="-40" y="-1050" as="targetPoint" />
          </mxGeometry>
        </mxCell>
        <mxCell id="V1M1o0XxE9o92TGWPAIC-50" value="Navegador" style="shape=umlActor;verticalLabelPosition=bottom;verticalAlign=top;html=1;fillColor=#cce5ff;strokeColor=#36393d;" parent="1" vertex="1">
          <mxGeometry x="125" y="-1090" width="30" height="60" as="geometry" />
        </mxCell>
        <mxCell id="V1M1o0XxE9o92TGWPAIC-54" value="" style="endArrow=none;html=1;rounded=0;entryX=1;entryY=0.3333333333333333;entryDx=0;entryDy=0;entryPerimeter=0;" parent="1" source="V1M1o0XxE9o92TGWPAIC-46" target="V1M1o0XxE9o92TGWPAIC-50" edge="1">
          <mxGeometry relative="1" as="geometry">
            <mxPoint x="260" y="-1448" as="sourcePoint" />
            <mxPoint x="150" y="-1310" as="targetPoint" />
          </mxGeometry>
        </mxCell>
        <mxCell id="V1M1o0XxE9o92TGWPAIC-55" value="Desistir de uma aventura" style="ellipse;whiteSpace=wrap;html=1;" parent="1" vertex="1">
          <mxGeometry x="600" y="-1280" width="130" height="70" as="geometry" />
        </mxCell>
        <mxCell id="V1M1o0XxE9o92TGWPAIC-57" value="" style="endArrow=none;html=1;rounded=0;entryX=1;entryY=0.3333333333333333;entryDx=0;entryDy=0;entryPerimeter=0;" parent="1" source="V1M1o0XxE9o92TGWPAIC-55" target="V1M1o0XxE9o92TGWPAIC-3" edge="1">
          <mxGeometry relative="1" as="geometry">
            <mxPoint x="270" y="-1438" as="sourcePoint" />
            <mxPoint x="160" y="-1300" as="targetPoint" />
          </mxGeometry>
        </mxCell>
        <mxCell id="V1M1o0XxE9o92TGWPAIC-58" value="" style="endArrow=none;html=1;rounded=0;exitX=0;exitY=0.3333333333333333;exitDx=0;exitDy=0;exitPerimeter=0;" parent="1" source="V1M1o0XxE9o92TGWPAIC-18" target="V1M1o0XxE9o92TGWPAIC-55" edge="1">
          <mxGeometry relative="1" as="geometry">
            <mxPoint x="1030" y="-1070" as="sourcePoint" />
            <mxPoint x="900" y="-922" as="targetPoint" />
          </mxGeometry>
        </mxCell>
        <mxCell id="V1M1o0XxE9o92TGWPAIC-59" value="Verificar se o sócio, tem o nível de dificuldade abaixo" style="ellipse;whiteSpace=wrap;html=1;" parent="1" vertex="1">
          <mxGeometry x="460" y="-1150" width="160" height="70" as="geometry" />
        </mxCell>
        <mxCell id="V1M1o0XxE9o92TGWPAIC-64" value="Pesquisar Aventuras" style="ellipse;whiteSpace=wrap;html=1;" parent="1" vertex="1">
          <mxGeometry x="480" y="-910" width="140" height="70" as="geometry" />
        </mxCell>
        <mxCell id="V1M1o0XxE9o92TGWPAIC-65" value="" style="endArrow=none;html=1;rounded=0;exitX=0;exitY=0.3333333333333333;exitDx=0;exitDy=0;exitPerimeter=0;" parent="1" source="V1M1o0XxE9o92TGWPAIC-18" target="V1M1o0XxE9o92TGWPAIC-64" edge="1">
          <mxGeometry relative="1" as="geometry">
            <mxPoint x="1000" y="-1060" as="sourcePoint" />
            <mxPoint x="876" y="-936" as="targetPoint" />
            <Array as="points">
              <mxPoint x="700" y="-830" />
            </Array>
          </mxGeometry>
        </mxCell>
        <mxCell id="V1M1o0XxE9o92TGWPAIC-66" value="Pesquisar por:&lt;br&gt;Região, nivel de dificuldade, data de início, duração ou preço" style="shape=note;whiteSpace=wrap;html=1;backgroundOutline=1;darkOpacity=0.05;fontSize=12;" parent="1" vertex="1">
          <mxGeometry x="724" y="-730" width="170" height="90" as="geometry" />
        </mxCell>
        <mxCell id="V1M1o0XxE9o92TGWPAIC-67" value="" style="endArrow=none;dashed=1;html=1;dashPattern=1 3;strokeWidth=2;rounded=0;" parent="1" source="V1M1o0XxE9o92TGWPAIC-66" target="V1M1o0XxE9o92TGWPAIC-64" edge="1">
          <mxGeometry width="50" height="50" relative="1" as="geometry">
            <mxPoint x="570" y="-163" as="sourcePoint" />
            <mxPoint x="833" y="-827" as="targetPoint" />
            <Array as="points" />
          </mxGeometry>
        </mxCell>
        <mxCell id="V1M1o0XxE9o92TGWPAIC-70" value="Gerir Admins Regionais" style="ellipse;whiteSpace=wrap;html=1;" parent="1" vertex="1">
          <mxGeometry x="191" y="-969" width="140" height="70" as="geometry" />
        </mxCell>
        <mxCell id="V1M1o0XxE9o92TGWPAIC-71" value="" style="endArrow=none;html=1;rounded=0;entryX=1;entryY=0.3333333333333333;entryDx=0;entryDy=0;entryPerimeter=0;" parent="1" source="V1M1o0XxE9o92TGWPAIC-70" target="V1M1o0XxE9o92TGWPAIC-19" edge="1">
          <mxGeometry relative="1" as="geometry">
            <mxPoint x="150" y="-750" as="sourcePoint" />
            <mxPoint x="10" y="-750" as="targetPoint" />
          </mxGeometry>
        </mxCell>
        <mxCell id="V1M1o0XxE9o92TGWPAIC-72" value="Aprovar aventuras" style="ellipse;whiteSpace=wrap;html=1;" parent="1" vertex="1">
          <mxGeometry x="300" y="-810" width="140" height="70" as="geometry" />
        </mxCell>
        <mxCell id="V1M1o0XxE9o92TGWPAIC-73" value="" style="endArrow=none;html=1;rounded=0;entryX=1;entryY=0.3333333333333333;entryDx=0;entryDy=0;entryPerimeter=0;" parent="1" source="V1M1o0XxE9o92TGWPAIC-72" target="V1M1o0XxE9o92TGWPAIC-19" edge="1">
          <mxGeometry relative="1" as="geometry">
            <mxPoint x="110" y="-730" as="sourcePoint" />
            <mxPoint x="-30" y="-730" as="targetPoint" />
          </mxGeometry>
        </mxCell>
        <mxCell id="V1M1o0XxE9o92TGWPAIC-78" value="" style="endArrow=none;html=1;rounded=0;entryX=1;entryY=0.3333333333333333;entryDx=0;entryDy=0;entryPerimeter=0;" parent="1" source="V1M1o0XxE9o92TGWPAIC-38" target="V1M1o0XxE9o92TGWPAIC-20" edge="1">
          <mxGeometry relative="1" as="geometry">
            <mxPoint x="150" y="-660" as="sourcePoint" />
            <mxPoint x="10" y="-660" as="targetPoint" />
          </mxGeometry>
        </mxCell>
        <mxCell id="V1M1o0XxE9o92TGWPAIC-96" style="rounded=0;orthogonalLoop=1;jettySize=auto;html=1;" parent="1" source="V1M1o0XxE9o92TGWPAIC-79" target="V1M1o0XxE9o92TGWPAIC-95" edge="1">
          <mxGeometry relative="1" as="geometry" />
        </mxCell>
        <mxCell id="V1M1o0XxE9o92TGWPAIC-97" value="&amp;lt;&amp;lt;include&amp;gt;&amp;gt;" style="edgeLabel;html=1;align=center;verticalAlign=middle;resizable=0;points=[];" parent="V1M1o0XxE9o92TGWPAIC-96" vertex="1" connectable="0">
          <mxGeometry x="0.018" y="1" relative="1" as="geometry">
            <mxPoint as="offset" />
          </mxGeometry>
        </mxCell>
        <mxCell id="V1M1o0XxE9o92TGWPAIC-79" value="Gerir Viaturas" style="ellipse;whiteSpace=wrap;html=1;" parent="1" vertex="1">
          <mxGeometry x="584" y="-1467.5" width="120" height="70" as="geometry" />
        </mxCell>
        <mxCell id="V1M1o0XxE9o92TGWPAIC-81" value="" style="endArrow=none;html=1;rounded=0;entryX=1;entryY=0.3333333333333333;entryDx=0;entryDy=0;entryPerimeter=0;" parent="1" source="V1M1o0XxE9o92TGWPAIC-79" target="V1M1o0XxE9o92TGWPAIC-3" edge="1">
          <mxGeometry relative="1" as="geometry">
            <mxPoint x="90" y="-1410" as="sourcePoint" />
            <mxPoint x="-50" y="-1410" as="targetPoint" />
          </mxGeometry>
        </mxCell>
        <mxCell id="V1M1o0XxE9o92TGWPAIC-83" value="" style="endArrow=none;html=1;rounded=0;entryX=1;entryY=0.3333333333333333;entryDx=0;entryDy=0;entryPerimeter=0;" parent="1" source="V1M1o0XxE9o92TGWPAIC-64" target="V1M1o0XxE9o92TGWPAIC-19" edge="1">
          <mxGeometry relative="1" as="geometry">
            <mxPoint x="60" y="-950" as="sourcePoint" />
            <mxPoint x="-80" y="-950" as="targetPoint" />
            <Array as="points" />
          </mxGeometry>
        </mxCell>
        <mxCell id="V1M1o0XxE9o92TGWPAIC-84" value="" style="endArrow=none;html=1;rounded=0;entryX=1;entryY=0.3333333333333333;entryDx=0;entryDy=0;entryPerimeter=0;" parent="1" source="V1M1o0XxE9o92TGWPAIC-64" target="V1M1o0XxE9o92TGWPAIC-3" edge="1">
          <mxGeometry relative="1" as="geometry">
            <mxPoint x="160" y="-970" as="sourcePoint" />
            <mxPoint x="20" y="-970" as="targetPoint" />
            <Array as="points">
              <mxPoint x="270" y="-1010" />
            </Array>
          </mxGeometry>
        </mxCell>
        <mxCell id="V1M1o0XxE9o92TGWPAIC-85" value="" style="endArrow=none;html=1;rounded=0;entryX=1;entryY=0.3333333333333333;entryDx=0;entryDy=0;entryPerimeter=0;" parent="1" source="V1M1o0XxE9o92TGWPAIC-64" target="V1M1o0XxE9o92TGWPAIC-20" edge="1">
          <mxGeometry relative="1" as="geometry">
            <mxPoint x="120" y="-560" as="sourcePoint" />
            <mxPoint x="-20" y="-560" as="targetPoint" />
            <Array as="points">
              <mxPoint x="220" y="-790" />
            </Array>
          </mxGeometry>
        </mxCell>
        <mxCell id="V1M1o0XxE9o92TGWPAIC-87" value="" style="endArrow=none;html=1;rounded=0;entryX=1;entryY=0.3333333333333333;entryDx=0;entryDy=0;entryPerimeter=0;" parent="1" source="V1M1o0XxE9o92TGWPAIC-64" target="V1M1o0XxE9o92TGWPAIC-50" edge="1">
          <mxGeometry relative="1" as="geometry">
            <mxPoint x="100" y="-950" as="sourcePoint" />
            <mxPoint x="-40" y="-950" as="targetPoint" />
            <Array as="points">
              <mxPoint x="260" y="-980" />
            </Array>
          </mxGeometry>
        </mxCell>
        <mxCell id="V1M1o0XxE9o92TGWPAIC-88" value="Consultar perfil" style="ellipse;whiteSpace=wrap;html=1;" parent="1" vertex="1">
          <mxGeometry x="480" y="-1400" width="120" height="60" as="geometry" />
        </mxCell>
        <mxCell id="V1M1o0XxE9o92TGWPAIC-89" value="" style="endArrow=none;html=1;rounded=0;entryX=1;entryY=0.3333333333333333;entryDx=0;entryDy=0;entryPerimeter=0;" parent="1" source="V1M1o0XxE9o92TGWPAIC-88" target="V1M1o0XxE9o92TGWPAIC-3" edge="1">
          <mxGeometry relative="1" as="geometry">
            <mxPoint x="140" y="-1440" as="sourcePoint" />
            <mxPoint y="-1440" as="targetPoint" />
          </mxGeometry>
        </mxCell>
        <mxCell id="V1M1o0XxE9o92TGWPAIC-90" value="Editar Perfil" style="ellipse;whiteSpace=wrap;html=1;" parent="1" vertex="1">
          <mxGeometry x="850" y="-1290" width="120" height="60" as="geometry" />
        </mxCell>
        <mxCell id="V1M1o0XxE9o92TGWPAIC-91" value="" style="endArrow=none;html=1;rounded=0;" parent="1" source="V1M1o0XxE9o92TGWPAIC-90" edge="1">
          <mxGeometry relative="1" as="geometry">
            <mxPoint x="100" y="-1410" as="sourcePoint" />
            <mxPoint x="130" y="-1330" as="targetPoint" />
          </mxGeometry>
        </mxCell>
        <mxCell id="V1M1o0XxE9o92TGWPAIC-92" value="Exceto nº de identificação" style="shape=note;whiteSpace=wrap;html=1;backgroundOutline=1;darkOpacity=0.05;fontSize=12;" parent="1" vertex="1">
          <mxGeometry x="830" y="-1370" width="110" height="55" as="geometry" />
        </mxCell>
        <mxCell id="V1M1o0XxE9o92TGWPAIC-93" value="" style="endArrow=none;dashed=1;html=1;dashPattern=1 3;strokeWidth=2;rounded=0;" parent="1" source="V1M1o0XxE9o92TGWPAIC-92" target="V1M1o0XxE9o92TGWPAIC-90" edge="1">
          <mxGeometry width="50" height="50" relative="1" as="geometry">
            <mxPoint x="480" y="-618" as="sourcePoint" />
            <mxPoint x="743" y="-1282" as="targetPoint" />
            <Array as="points" />
          </mxGeometry>
        </mxCell>
        <mxCell id="V1M1o0XxE9o92TGWPAIC-95" value="Verificar Matricula na Base de Dados" style="ellipse;whiteSpace=wrap;html=1;" parent="1" vertex="1">
          <mxGeometry x="800" y="-1470" width="140" height="70" as="geometry" />
        </mxCell>
        <mxCell id="V1M1o0XxE9o92TGWPAIC-98" value="Regista tempo de cada Sócio" style="ellipse;whiteSpace=wrap;html=1;" parent="1" vertex="1">
          <mxGeometry x="410" y="-550" width="140" height="70" as="geometry" />
        </mxCell>
        <mxCell id="V1M1o0XxE9o92TGWPAIC-100" value="" style="endArrow=none;html=1;rounded=0;" parent="1" source="V1M1o0XxE9o92TGWPAIC-98" target="V1M1o0XxE9o92TGWPAIC-38" edge="1">
          <mxGeometry relative="1" as="geometry">
            <mxPoint x="90" y="-640" as="sourcePoint" />
            <mxPoint x="-91" y="-838" as="targetPoint" />
          </mxGeometry>
        </mxCell>
        <mxCell id="V1M1o0XxE9o92TGWPAIC-101" value="&amp;lt;&amp;lt;extend&amp;gt;&amp;gt;" style="edgeLabel;html=1;align=center;verticalAlign=middle;resizable=0;points=[];" parent="V1M1o0XxE9o92TGWPAIC-100" vertex="1" connectable="0">
          <mxGeometry x="0.2517" relative="1" as="geometry">
            <mxPoint as="offset" />
          </mxGeometry>
        </mxCell>
        <mxCell id="V1M1o0XxE9o92TGWPAIC-103" value="" style="line;strokeWidth=1;fillColor=none;align=left;verticalAlign=middle;spacingTop=-1;spacingLeft=3;spacingRight=3;rotatable=0;labelPosition=right;points=[];portConstraint=eastwest;strokeColor=inherit;" parent="1" vertex="1">
          <mxGeometry x="240" y="-1436.5" width="200" height="8" as="geometry" />
        </mxCell>
        <mxCell id="V1M1o0XxE9o92TGWPAIC-104" value="Consultar Pagamentos" style="ellipse;whiteSpace=wrap;html=1;" parent="1" vertex="1">
          <mxGeometry x="520" y="-1570" width="140" height="70" as="geometry" />
        </mxCell>
        <mxCell id="V1M1o0XxE9o92TGWPAIC-107" value="Consultar Inscrições e Participações" style="ellipse;whiteSpace=wrap;html=1;" parent="1" vertex="1">
          <mxGeometry x="670" y="-1360" width="130" height="59" as="geometry" />
        </mxCell>
        <mxCell id="V1M1o0XxE9o92TGWPAIC-108" value="" style="endArrow=none;html=1;rounded=0;" parent="1" target="V1M1o0XxE9o92TGWPAIC-107" edge="1">
          <mxGeometry relative="1" as="geometry">
            <mxPoint x="130" y="-1330" as="sourcePoint" />
            <mxPoint x="-51" y="-1618" as="targetPoint" />
          </mxGeometry>
        </mxCell>
        <mxCell id="V1M1o0XxE9o92TGWPAIC-112" style="rounded=0;orthogonalLoop=1;jettySize=auto;html=1;" parent="1" source="V1M1o0XxE9o92TGWPAIC-109" target="V1M1o0XxE9o92TGWPAIC-111" edge="1">
          <mxGeometry relative="1" as="geometry" />
        </mxCell>
        <mxCell id="V1M1o0XxE9o92TGWPAIC-114" value="&amp;lt;&amp;lt;extend&amp;gt;&amp;gt;" style="edgeLabel;html=1;align=center;verticalAlign=middle;resizable=0;points=[];" parent="V1M1o0XxE9o92TGWPAIC-112" vertex="1" connectable="0">
          <mxGeometry x="-0.1297" y="1" relative="1" as="geometry">
            <mxPoint as="offset" />
          </mxGeometry>
        </mxCell>
        <mxCell id="V1M1o0XxE9o92TGWPAIC-109" value="Consultar sócios com pagamentos em falta" style="ellipse;whiteSpace=wrap;html=1;" parent="1" vertex="1">
          <mxGeometry x="260" y="-470" width="140" height="70" as="geometry" />
        </mxCell>
        <mxCell id="V1M1o0XxE9o92TGWPAIC-110" value="" style="endArrow=none;html=1;rounded=0;entryX=1;entryY=0.3333333333333333;entryDx=0;entryDy=0;entryPerimeter=0;" parent="1" source="V1M1o0XxE9o92TGWPAIC-109" target="V1M1o0XxE9o92TGWPAIC-20" edge="1">
          <mxGeometry relative="1" as="geometry">
            <mxPoint x="341" y="-617" as="sourcePoint" />
            <mxPoint x="160" y="-815" as="targetPoint" />
          </mxGeometry>
        </mxCell>
        <mxCell id="V1M1o0XxE9o92TGWPAIC-111" value="Enviar email com o valor da dívida" style="ellipse;whiteSpace=wrap;html=1;" parent="1" vertex="1">
          <mxGeometry x="445" y="-400" width="130" height="70" as="geometry" />
        </mxCell>
        <mxCell id="V1M1o0XxE9o92TGWPAIC-130" style="rounded=0;orthogonalLoop=1;jettySize=auto;html=1;" parent="1" source="V1M1o0XxE9o92TGWPAIC-115" target="V1M1o0XxE9o92TGWPAIC-129" edge="1">
          <mxGeometry relative="1" as="geometry" />
        </mxCell>
        <mxCell id="V1M1o0XxE9o92TGWPAIC-131" value="&amp;lt;&amp;lt;extend&amp;gt;&amp;gt;" style="edgeLabel;html=1;align=center;verticalAlign=middle;resizable=0;points=[];" parent="V1M1o0XxE9o92TGWPAIC-130" vertex="1" connectable="0">
          <mxGeometry x="-0.2121" y="-1" relative="1" as="geometry">
            <mxPoint as="offset" />
          </mxGeometry>
        </mxCell>
        <mxCell id="V1M1o0XxE9o92TGWPAIC-115" value="Autenticar Perfil" style="ellipse;whiteSpace=wrap;html=1;" parent="1" vertex="1">
          <mxGeometry x="584" y="-1050" width="140" height="70" as="geometry" />
        </mxCell>
        <mxCell id="V1M1o0XxE9o92TGWPAIC-116" value="" style="endArrow=none;html=1;rounded=0;exitX=0;exitY=0.3333333333333333;exitDx=0;exitDy=0;exitPerimeter=0;" parent="1" source="V1M1o0XxE9o92TGWPAIC-18" target="V1M1o0XxE9o92TGWPAIC-115" edge="1">
          <mxGeometry relative="1" as="geometry">
            <mxPoint x="351" y="-607" as="sourcePoint" />
            <mxPoint x="170" y="-805" as="targetPoint" />
          </mxGeometry>
        </mxCell>
        <mxCell id="V1M1o0XxE9o92TGWPAIC-117" value="" style="endArrow=none;html=1;rounded=0;entryX=0;entryY=0.3333333333333333;entryDx=0;entryDy=0;entryPerimeter=0;" parent="1" source="V1M1o0XxE9o92TGWPAIC-109" target="V1M1o0XxE9o92TGWPAIC-18" edge="1">
          <mxGeometry relative="1" as="geometry">
            <mxPoint x="1060" y="-510" as="sourcePoint" />
            <mxPoint x="879" y="-708" as="targetPoint" />
            <Array as="points">
              <mxPoint x="610" y="-490" />
              <mxPoint x="700" y="-760" />
            </Array>
          </mxGeometry>
        </mxCell>
        <mxCell id="V1M1o0XxE9o92TGWPAIC-118" value="" style="endArrow=none;html=1;rounded=0;exitX=0;exitY=0.3333333333333333;exitDx=0;exitDy=0;exitPerimeter=0;" parent="1" source="V1M1o0XxE9o92TGWPAIC-18" target="V1M1o0XxE9o92TGWPAIC-90" edge="1">
          <mxGeometry relative="1" as="geometry">
            <mxPoint x="1050" y="-1150" as="sourcePoint" />
            <mxPoint x="869" y="-1348" as="targetPoint" />
          </mxGeometry>
        </mxCell>
        <mxCell id="V1M1o0XxE9o92TGWPAIC-119" value="" style="endArrow=none;html=1;rounded=0;exitX=0;exitY=0.3333333333333333;exitDx=0;exitDy=0;exitPerimeter=0;" parent="1" source="V1M1o0XxE9o92TGWPAIC-18" target="V1M1o0XxE9o92TGWPAIC-107" edge="1">
          <mxGeometry relative="1" as="geometry">
            <mxPoint x="1030" y="-1160" as="sourcePoint" />
            <mxPoint x="849" y="-1358" as="targetPoint" />
          </mxGeometry>
        </mxCell>
        <mxCell id="V1M1o0XxE9o92TGWPAIC-120" value="" style="endArrow=none;html=1;rounded=0;exitX=0;exitY=0.3333333333333333;exitDx=0;exitDy=0;exitPerimeter=0;" parent="1" source="V1M1o0XxE9o92TGWPAIC-18" target="V1M1o0XxE9o92TGWPAIC-95" edge="1">
          <mxGeometry relative="1" as="geometry">
            <mxPoint x="1070" y="-1240" as="sourcePoint" />
            <mxPoint x="889" y="-1438" as="targetPoint" />
            <Array as="points">
              <mxPoint x="1010" y="-1350" />
            </Array>
          </mxGeometry>
        </mxCell>
        <mxCell id="V1M1o0XxE9o92TGWPAIC-121" value="" style="endArrow=none;html=1;rounded=0;exitX=0;exitY=0.3333333333333333;exitDx=0;exitDy=0;exitPerimeter=0;" parent="1" source="V1M1o0XxE9o92TGWPAIC-18" target="V1M1o0XxE9o92TGWPAIC-88" edge="1">
          <mxGeometry relative="1" as="geometry">
            <mxPoint x="1070" y="-1160" as="sourcePoint" />
            <mxPoint x="889" y="-1358" as="targetPoint" />
            <Array as="points">
              <mxPoint x="760" y="-1260" />
            </Array>
          </mxGeometry>
        </mxCell>
        <mxCell id="V1M1o0XxE9o92TGWPAIC-122" value="" style="endArrow=none;html=1;rounded=0;exitX=0;exitY=0.3333333333333333;exitDx=0;exitDy=0;exitPerimeter=0;" parent="1" source="V1M1o0XxE9o92TGWPAIC-18" target="V1M1o0XxE9o92TGWPAIC-59" edge="1">
          <mxGeometry relative="1" as="geometry">
            <mxPoint x="1010" y="-1140" as="sourcePoint" />
            <mxPoint x="829" y="-1338" as="targetPoint" />
          </mxGeometry>
        </mxCell>
        <mxCell id="V1M1o0XxE9o92TGWPAIC-123" value="" style="endArrow=none;html=1;rounded=0;exitX=0;exitY=0.3333333333333333;exitDx=0;exitDy=0;exitPerimeter=0;" parent="1" source="V1M1o0XxE9o92TGWPAIC-18" target="V1M1o0XxE9o92TGWPAIC-79" edge="1">
          <mxGeometry relative="1" as="geometry">
            <mxPoint x="1060" y="-1270" as="sourcePoint" />
            <mxPoint x="879" y="-1468" as="targetPoint" />
            <Array as="points">
              <mxPoint x="840" y="-1220" />
              <mxPoint x="800" y="-1380" />
            </Array>
          </mxGeometry>
        </mxCell>
        <mxCell id="V1M1o0XxE9o92TGWPAIC-124" value="" style="endArrow=none;html=1;rounded=0;exitX=0;exitY=0.3333333333333333;exitDx=0;exitDy=0;exitPerimeter=0;" parent="1" source="V1M1o0XxE9o92TGWPAIC-21" target="V1M1o0XxE9o92TGWPAIC-104" edge="1">
          <mxGeometry relative="1" as="geometry">
            <mxPoint x="1110" y="-1540" as="sourcePoint" />
            <mxPoint x="929" y="-1738" as="targetPoint" />
          </mxGeometry>
        </mxCell>
        <mxCell id="V1M1o0XxE9o92TGWPAIC-125" value="" style="endArrow=none;html=1;rounded=0;entryX=1;entryY=0.3333333333333333;entryDx=0;entryDy=0;entryPerimeter=0;" parent="1" source="V1M1o0XxE9o92TGWPAIC-115" target="V1M1o0XxE9o92TGWPAIC-3" edge="1">
          <mxGeometry relative="1" as="geometry">
            <mxPoint x="1030" y="-1100" as="sourcePoint" />
            <mxPoint x="849" y="-1298" as="targetPoint" />
            <Array as="points">
              <mxPoint x="340" y="-1100" />
            </Array>
          </mxGeometry>
        </mxCell>
        <mxCell id="V1M1o0XxE9o92TGWPAIC-126" value="" style="endArrow=none;html=1;rounded=0;entryX=1;entryY=0.3333333333333333;entryDx=0;entryDy=0;entryPerimeter=0;" parent="1" source="V1M1o0XxE9o92TGWPAIC-115" target="V1M1o0XxE9o92TGWPAIC-50" edge="1">
          <mxGeometry relative="1" as="geometry">
            <mxPoint x="1110" y="-1040" as="sourcePoint" />
            <mxPoint x="929" y="-1238" as="targetPoint" />
          </mxGeometry>
        </mxCell>
        <mxCell id="V1M1o0XxE9o92TGWPAIC-127" value="" style="endArrow=none;html=1;rounded=0;entryX=1;entryY=0.3333333333333333;entryDx=0;entryDy=0;entryPerimeter=0;" parent="1" source="V1M1o0XxE9o92TGWPAIC-115" target="V1M1o0XxE9o92TGWPAIC-19" edge="1">
          <mxGeometry relative="1" as="geometry">
            <mxPoint x="1070" y="-1120" as="sourcePoint" />
            <mxPoint x="889" y="-1318" as="targetPoint" />
          </mxGeometry>
        </mxCell>
        <mxCell id="V1M1o0XxE9o92TGWPAIC-128" value="" style="endArrow=none;html=1;rounded=0;entryX=1;entryY=0.3333333333333333;entryDx=0;entryDy=0;entryPerimeter=0;" parent="1" source="V1M1o0XxE9o92TGWPAIC-115" target="V1M1o0XxE9o92TGWPAIC-20" edge="1">
          <mxGeometry relative="1" as="geometry">
            <mxPoint x="1080" y="-1060" as="sourcePoint" />
            <mxPoint x="899" y="-1258" as="targetPoint" />
            <Array as="points">
              <mxPoint x="210" y="-810" />
            </Array>
          </mxGeometry>
        </mxCell>
        <mxCell id="V1M1o0XxE9o92TGWPAIC-129" value="Enviar aviso de pagamentos em falta" style="ellipse;whiteSpace=wrap;html=1;" parent="1" vertex="1">
          <mxGeometry x="670" y="-930" width="130" height="65" as="geometry" />
        </mxCell>
        <mxCell id="V1M1o0XxE9o92TGWPAIC-132" value="Validar inscrições" style="ellipse;whiteSpace=wrap;html=1;" parent="1" vertex="1">
          <mxGeometry x="270" y="-340" width="140" height="70" as="geometry" />
        </mxCell>
        <mxCell id="V1M1o0XxE9o92TGWPAIC-133" value="" style="endArrow=none;html=1;rounded=0;entryX=1;entryY=0.3333333333333333;entryDx=0;entryDy=0;entryPerimeter=0;" parent="1" source="V1M1o0XxE9o92TGWPAIC-132" target="V1M1o0XxE9o92TGWPAIC-20" edge="1">
          <mxGeometry relative="1" as="geometry">
            <mxPoint x="1060" y="-250" as="sourcePoint" />
            <mxPoint x="879" y="-448" as="targetPoint" />
          </mxGeometry>
        </mxCell>
        <mxCell id="V1M1o0XxE9o92TGWPAIC-134" value="Confirmar presença dos Sócios nas Aventuras" style="ellipse;whiteSpace=wrap;html=1;" parent="1" vertex="1">
          <mxGeometry x="280" y="-210" width="140" height="70" as="geometry" />
        </mxCell>
        <mxCell id="V1M1o0XxE9o92TGWPAIC-135" value="" style="endArrow=none;html=1;rounded=0;entryX=1;entryY=0.3333333333333333;entryDx=0;entryDy=0;entryPerimeter=0;" parent="1" source="V1M1o0XxE9o92TGWPAIC-134" target="V1M1o0XxE9o92TGWPAIC-20" edge="1">
          <mxGeometry relative="1" as="geometry">
            <mxPoint x="130" y="-250" as="sourcePoint" />
            <mxPoint x="-51" y="-448" as="targetPoint" />
          </mxGeometry>
        </mxCell>
        <mxCell id="V1M1o0XxE9o92TGWPAIC-136" value="" style="endArrow=none;html=1;rounded=0;entryX=0;entryY=0.3333333333333333;entryDx=0;entryDy=0;entryPerimeter=0;" parent="1" source="V1M1o0XxE9o92TGWPAIC-134" target="V1M1o0XxE9o92TGWPAIC-18" edge="1">
          <mxGeometry relative="1" as="geometry">
            <mxPoint x="1030" y="-280" as="sourcePoint" />
            <mxPoint x="849" y="-478" as="targetPoint" />
            <Array as="points">
              <mxPoint x="920" y="-340" />
            </Array>
          </mxGeometry>
        </mxCell>
        <mxCell id="V1M1o0XxE9o92TGWPAIC-137" value="" style="endArrow=none;html=1;rounded=0;entryX=0;entryY=0.3333333333333333;entryDx=0;entryDy=0;entryPerimeter=0;" parent="1" source="V1M1o0XxE9o92TGWPAIC-132" target="V1M1o0XxE9o92TGWPAIC-18" edge="1">
          <mxGeometry relative="1" as="geometry">
            <mxPoint x="1170" y="-290" as="sourcePoint" />
            <mxPoint x="989" y="-488" as="targetPoint" />
            <Array as="points">
              <mxPoint x="530" y="-270" />
              <mxPoint x="850" y="-400" />
            </Array>
          </mxGeometry>
        </mxCell>
      </root>
    </mxGraphModel>
  </diagram>
</mxfile>
